<?xml version="1.0" encoding="UTF-8"?>
<svg version="1.1" xmlns="http://www.w3.org/2000/svg" width="225" height="225">
<path d="M0 0 C0.88171875 0.45890625 1.7634375 0.9178125 2.671875 1.390625 C7.88489838 4.32102276 12.08760411 7.46985739 16 12 C16 12.66 16 13.32 16 14 C8.30793265 14.78967992 3.92737122 13.81610447 -2.46875 9.53515625 C-10.51595613 4.65467476 -20.09679781 3.77563214 -29.1640625 5.65625 C-39.26779842 8.40105882 -47.73713166 13.05934327 -53.75390625 21.8203125 C-59.39313129 31.68453687 -61.56164492 42.0788854 -59.3515625 53.2890625 C-56.51620009 63.6369236 -50.95883581 71.94124094 -42 78 C-31.89076303 83.35497782 -21.00721111 84.70262691 -9.78515625 82.31640625 C0.30057145 78.90734541 9.10117105 72.06515063 14.2890625 62.6640625 C19.76103896 50.81467462 19.18608892 38.20942602 15 26 C17.97 26 20.94 26 24 26 C29.49053178 37.93593865 28.99610561 49.56268254 25 62 C18.56190411 76.71836082 8.61497261 85.03280848 -6.140625 91.0546875 C-18.93037628 95.28299325 -32.72226049 93.34701765 -44.625 87.4375 C-55.5516585 81.05179049 -63.7474578 71.16969582 -67.8125 59.1875 C-71.20767663 46.15571426 -70.50707158 33.37749532 -64.375 21.25 C-57.18612201 9.26853668 -46.80031532 0.00432921 -33.0234375 -3.5625 C-21.81084428 -5.18499411 -10.22280954 -5.34224241 0 0 Z " fill="#1B8EB6" transform="translate(131,45)"/>
<path d="M0 0 C1.10408203 -0.00773437 1.10408203 -0.00773437 2.23046875 -0.015625 C2.98972656 -0.00015625 3.74898438 0.0153125 4.53125 0.03125 C5.67013672 0.00804687 5.67013672 0.00804687 6.83203125 -0.015625 C10.70966794 0.01153883 12.45533176 0.06909339 15.5625 2.5625 C16.0471875 3.2121875 16.531875 3.861875 17.03125 4.53125 C16.37125 6.18125 15.71125 7.83125 15.03125 9.53125 C10.41125 9.86125 5.79125 10.19125 1.03125 10.53125 C-0.61875 24.39125 -2.26875 38.25125 -3.96875 52.53125 C-23.76875 52.53125 -43.56875 52.53125 -63.96875 52.53125 C-64.62875 46.83875 -65.28875 41.14625 -65.96875 35.28125 C-66.17757812 33.49041992 -66.38640625 31.69958984 -66.6015625 29.85449219 C-66.76580496 28.42905718 -66.92987883 27.00360274 -67.09375 25.578125 C-67.18011719 24.84287598 -67.26648438 24.10762695 -67.35546875 23.35009766 C-67.73384059 20.0415963 -67.96875 16.86766123 -67.96875 13.53125 C-50.80875 13.53125 -33.64875 13.53125 -15.96875 13.53125 C-15.96875 19.58408771 -16.12115273 24.71354396 -16.96875 30.59375 C-17.11183594 31.60598633 -17.11183594 31.60598633 -17.2578125 32.63867188 C-17.48925287 34.27032649 -17.7281739 35.90091734 -17.96875 37.53125 C-22.36531173 37.55590504 -26.7618372 37.57408842 -31.15844727 37.58618164 C-32.65519918 37.59122121 -34.15194616 37.59805287 -35.64868164 37.60668945 C-37.79574807 37.61877159 -39.94274962 37.62448191 -42.08984375 37.62890625 C-44.03008423 37.63676147 -44.03008423 37.63676147 -46.00952148 37.64477539 C-48.96875 37.53125 -48.96875 37.53125 -49.96875 36.53125 C-49.96875 33.89125 -49.96875 31.25125 -49.96875 28.53125 C-42.04875 28.53125 -34.12875 28.53125 -25.96875 28.53125 C-25.63875 26.22125 -25.30875 23.91125 -24.96875 21.53125 C-35.85875 21.53125 -46.74875 21.53125 -57.96875 21.53125 C-57.30875 26.48125 -56.64875 31.43125 -55.96875 36.53125 C-55.96875 39.17125 -55.96875 41.81125 -55.96875 44.53125 C-41.44875 44.53125 -26.92875 44.53125 -11.96875 44.53125 C-11.63875 39.58125 -11.30875 34.63125 -10.96875 29.53125 C-10.57093145 25.12483945 -10.1452013 20.73890891 -9.65625 16.34375 C-9.49866211 14.70696289 -9.49866211 14.70696289 -9.33789062 13.03710938 C-9.21994141 11.98974609 -9.10199219 10.94238281 -8.98046875 9.86328125 C-8.88209717 8.93233643 -8.78372559 8.0013916 -8.68237305 7.04223633 C-7.39981468 2.52936844 -4.72841758 0.03204155 0 0 Z " fill="#94C538" transform="translate(143.96875,59.46875)"/>
<path d="M0 0 C1.10408203 -0.00773437 1.10408203 -0.00773437 2.23046875 -0.015625 C3.36935547 0.00757813 3.36935547 0.00757813 4.53125 0.03125 C5.67013672 0.00804687 5.67013672 0.00804687 6.83203125 -0.015625 C10.70966794 0.01153883 12.45533176 0.06909339 15.5625 2.5625 C16.28953125 3.53703125 16.28953125 3.53703125 17.03125 4.53125 C16.37125 6.18125 15.71125 7.83125 15.03125 9.53125 C10.41125 9.86125 5.79125 10.19125 1.03125 10.53125 C-0.61875 24.39125 -2.26875 38.25125 -3.96875 52.53125 C-17.49875 52.53125 -31.02875 52.53125 -44.96875 52.53125 C-44.96875 52.20125 -44.96875 51.87125 -44.96875 51.53125 C-35.39875 51.20125 -25.82875 50.87125 -15.96875 50.53125 C-15.30875 49.21125 -14.64875 47.89125 -13.96875 46.53125 C-15.28875 46.20125 -16.60875 45.87125 -17.96875 45.53125 C-15.98875 45.53125 -14.00875 45.53125 -11.96875 45.53125 C-11.93136719 44.66628906 -11.89398438 43.80132812 -11.85546875 42.91015625 C-11.39069517 34.00655248 -10.6125533 25.14547063 -9.65625 16.28125 C-9.55078857 15.18627197 -9.44532715 14.09129395 -9.33666992 12.96313477 C-9.16035034 11.41130493 -9.16035034 11.41130493 -8.98046875 9.828125 C-8.88209717 8.90354492 -8.78372559 7.97896484 -8.68237305 7.02636719 C-7.39441258 2.52313217 -4.71868046 0.03197557 0 0 Z " fill="#79BA40" transform="translate(143.96875,59.46875)"/>
<path d="M0 0 C3.4269093 1.68230093 5.34530541 2.95844043 7.375 6.1875 C8.56126151 11.52567682 8.6367066 16.19041281 6.8125 21.375 C4.69286083 24.44482224 3.48133993 25.63773655 0 27 C-4.7616178 27.71292244 -8.08412363 27.44961203 -12.4375 25.3125 C-15.77488262 22.30071568 -16.76159878 20.34066652 -17.21484375 15.890625 C-17.42573743 10.86291976 -16.93724781 7.2539451 -14 3 C-9.8681688 -0.64573341 -5.26181074 -0.83373762 0 0 Z M-8 7 C-9.18306728 9.36613456 -9.13354608 10.86780736 -9.125 13.5 C-9.12757813 14.2940625 -9.13015625 15.088125 -9.1328125 15.90625 C-9.13277996 18.05918534 -9.13277996 18.05918534 -8 20 C-5.69 20 -3.38 20 -1 20 C0.18306728 17.63386544 0.13354608 16.13219264 0.125 13.5 C0.12757813 12.7059375 0.13015625 11.911875 0.1328125 11.09375 C0.13277996 8.94081466 0.13277996 8.94081466 -1 7 C-3.31 7 -5.62 7 -8 7 Z " fill="#7DC13C" transform="translate(150,146)"/>
<path d="M0 0 C2.31 0 4.62 0 7 0 C7 3.3 7 6.6 7 10 C9.64 10 12.28 10 15 10 C15 6.7 15 3.4 15 0 C17.31 0 19.62 0 22 0 C22 8.91 22 17.82 22 27 C19.69 27 17.38 27 15 27 C15 23.7 15 20.4 15 17 C12.36 17 9.72 17 7 17 C7 20.3 7 23.6 7 27 C4.69 27 2.38 27 0 27 C0 18.09 0 9.18 0 0 Z " fill="#7DBD3F" transform="translate(107,146)"/>
<path d="M0 0 C6.27 0 12.54 0 19 0 C19 1.98 19 3.96 19 6 C18 7 18 7 15.71484375 7.09765625 C14.34005859 7.08025391 14.34005859 7.08025391 12.9375 7.0625 C12.01839844 7.05347656 11.09929688 7.04445312 10.15234375 7.03515625 C9.44207031 7.02355469 8.73179688 7.01195312 8 7 C8 7.99 8 8.98 8 10 C10.97 10 13.94 10 17 10 C17 12.31 17 14.62 17 17 C14.03 17 11.06 17 8 17 C8 17.99 8 18.98 8 20 C8.71027344 19.98839844 9.42054687 19.97679687 10.15234375 19.96484375 C11.07144531 19.95582031 11.99054687 19.94679687 12.9375 19.9375 C13.85402344 19.92589844 14.77054688 19.91429687 15.71484375 19.90234375 C18 20 18 20 19 21 C19 22.98 19 24.96 19 27 C12.73 27 6.46 27 0 27 C0 18.09 0 9.18 0 0 Z " fill="#1693BF" transform="translate(43,146)"/>
<path d="M0 0 C0.99 0.495 0.99 0.495 2 1 C2 2.32 2 3.64 2 5 C2.99 3.35 3.98 1.7 5 0 C6.32 0.33 7.64 0.66 9 1 C9 3.64 9 6.28 9 9 C23.52 9 38.04 9 53 9 C52.34 9.66 51.68 10.32 51 11 C50.63837971 12.32594105 50.30271961 13.65938457 50 15 C48.22617868 16.77382132 45.63369652 16.23536097 43.2265625 16.31640625 C41.41224731 16.3793689 41.41224731 16.3793689 39.5612793 16.44360352 C38.26230713 16.48283936 36.96333496 16.5220752 35.625 16.5625 C33.66203979 16.62618774 33.66203979 16.62618774 31.65942383 16.69116211 C21.43229715 17.00328259 11.23103104 17.08317911 1 17 C0.67 11.39 0.34 5.78 0 0 Z " fill="#7CBF3F" transform="translate(79,95)"/>
<path d="M0 0 C15.53125 0 15.53125 0 19 3 C20.77051945 6.70126691 21.26519971 9.80660131 20.375 13.8125 C18.73808183 16.416688 17.77013362 17.61493319 15 19 C12.27971675 19.23971845 9.74123593 19.1370618 7 19 C7 21.64 7 24.28 7 27 C4.69 27 2.38 27 0 27 C0 18.09 0 9.18 0 0 Z M7 7 C7 8.98 7 10.96 7 13 C8.98 12.67 10.96 12.34 13 12 C12.67 10.35 12.34 8.7 12 7 C10.35 7 8.7 7 7 7 Z " fill="#7EBD3F" transform="translate(163,146)"/>
<path d="M0 0 C0.33 0 0.66 0 1 0 C1.20082816 5.72360248 0.79037856 11.17241459 -0.0078125 16.83984375 C-0.10263916 17.53074097 -0.19746582 18.22163818 -0.29516602 18.93347168 C-0.52740594 20.62268852 -0.76332632 22.31139866 -1 24 C-5.39656173 24.02465504 -9.7930872 24.04283842 -14.18969727 24.05493164 C-15.68644918 24.05997121 -17.18319616 24.06680287 -18.67993164 24.07543945 C-20.82699807 24.08752159 -22.97399962 24.09323191 -25.12109375 24.09765625 C-27.06133423 24.10551147 -27.06133423 24.10551147 -29.04077148 24.11352539 C-32 24 -32 24 -33 23 C-33 20.36 -33 17.72 -33 15 C-25.08 15 -17.16 15 -9 15 C-8.67 12.36 -8.34 9.72 -8 7 C-5.525 7.495 -5.525 7.495 -3 8 C-2.01 5.36 -1.02 2.72 0 0 Z " fill="#84BA41" transform="translate(127,73)"/>
<path d="M0 0 C0 2.31 0 4.62 0 7 C-2.97 6.67 -5.94 6.34 -9 6 C-8.19995526 8.14309946 -8.19995526 8.14309946 -6.22265625 8.74609375 C-4.78566942 9.20603348 -3.34816985 9.66437437 -1.91015625 10.12109375 C0 11 0 11 2 14 C2.55396415 17.56839247 2.74798017 20.8958388 0.6875 23.9375 C-3.27199067 26.43051264 -7.47289839 26.39168082 -12 26 C-14.5 25 -14.5 25 -16 24 C-16 21.69 -16 19.38 -16 17 C-12.37 17.66 -8.74 18.32 -5 19 C-5.79519666 16.86030532 -5.79519666 16.86030532 -7.7421875 16.2890625 C-8.44601563 16.06992188 -9.14984375 15.85078125 -9.875 15.625 C-12.43123049 14.69796489 -13.96613192 14.02873655 -16.0625 12.25 C-17.47250133 8.86599681 -16.89005304 6.49663695 -16 3 C-12.21739484 -2.15809794 -5.61499085 -1.87166362 0 0 Z " fill="#7DBD3D" transform="translate(100,147)"/>
<path d="M0 0 C0.99 0.33 1.98 0.66 3 1 C3.99 0.67 4.98 0.34 6 0 C7 8 7 8 5 24 C-8.53 24 -22.06 24 -36 24 C-36 23.67 -36 23.34 -36 23 C-26.43 22.67 -16.86 22.34 -7 22 C-6.34 20.68 -5.68 19.36 -5 18 C-6.32 17.67 -7.64 17.34 -9 17 C-7.02 17 -5.04 17 -3 17 C-3.020625 15.88625 -3.04125 14.7725 -3.0625 13.625 C-3 10 -3 10 -2 8 C-1.34 8 -0.68 8 0 8 C0 5.36 0 2.72 0 0 Z " fill="#66B744" transform="translate(135,88)"/>
<path d="M0 0 C6.27 0 12.54 0 19 0 C19 1.98 19 3.96 19 6 C18 7 18 7 15.71484375 7.09765625 C14.34005859 7.08025391 14.34005859 7.08025391 12.9375 7.0625 C12.01839844 7.05347656 11.09929688 7.04445312 10.15234375 7.03515625 C9.44207031 7.02355469 8.73179688 7.01195312 8 7 C8 7.99 8 8.98 8 10 C10.97 10 13.94 10 17 10 C17 12.31 17 14.62 17 17 C14.03 17 11.06 17 8 17 C8 18.32 8 19.64 8 21 C7.34 21 6.68 21 6 21 C6 19.02 6 17.04 6 15 C10.455 14.505 10.455 14.505 15 14 C15 13.67 15 13.34 15 13 C13.700625 12.855625 12.40125 12.71125 11.0625 12.5625 C7.125 12.125 7.125 12.125 6 11 C5.875 8.5 5.875 8.5 6 6 C7 5 7 5 9.50390625 4.90234375 C11.01791016 4.91974609 11.01791016 4.91974609 12.5625 4.9375 C13.57441406 4.94652344 14.58632813 4.95554688 15.62890625 4.96484375 C16.80259766 4.98224609 16.80259766 4.98224609 18 5 C18 3.68 18 2.36 18 1 C17.01 1.33 16.02 1.66 15 2 C12.94106379 2.22325814 10.87766347 2.40705759 8.8125 2.5625 C5.9353125 2.7790625 5.9353125 2.7790625 3 3 C2.67 10.26 2.34 17.52 2 25 C7.28 25.33 12.56 25.66 18 26 C18 24.68 18 23.36 18 22 C15.03 22 12.06 22 9 22 C9 21.34 9 20.68 9 20 C10.47906892 19.97310784 11.95827483 19.95365379 13.4375 19.9375 C14.26121094 19.92589844 15.08492187 19.91429687 15.93359375 19.90234375 C18 20 18 20 19 21 C19 22.98 19 24.96 19 27 C12.73 27 6.46 27 0 27 C0 18.09 0 9.18 0 0 Z " fill="#2183A1" transform="translate(43,146)"/>
<path d="M0 0 C11.41385705 -0.86142317 22.31671121 4.37056313 30.95703125 11.6484375 C32.625 13.25 32.625 13.25 35 16 C35 16.66 35 17.32 35 18 C27.33618458 18.78677953 22.92265833 17.85515993 16.5703125 13.53515625 C12.35293891 11.01626898 7.76536791 10.03279837 3 9 C3 8.67 3 8.34 3 8 C6.53873697 7.92922526 9.81683177 7.96889596 13.3125 8.5625 C15.96193326 9.26283158 15.96193326 9.26283158 18 8 C15.72480557 4.58720836 14.80738618 4.18403736 11 3 C9.07096868 2.7240522 7.1310968 2.51550097 5.1875 2.375 C4.21167969 2.30023438 3.23585938 2.22546875 2.23046875 2.1484375 C1.49441406 2.09945312 0.75835937 2.05046875 0 2 C0 1.34 0 0.68 0 0 Z " fill="#1E88AC" transform="translate(112,41)"/>
<path d="M0 0 C0.33 0 0.66 0 1 0 C1.2700558 7.8316181 0.23107719 15.27279225 -1 23 C-4.96 23 -8.92 23 -13 23 C-12.8125 20.125 -12.8125 20.125 -12 17 C-9.4375 15.625 -9.4375 15.625 -7 15 C-7.350625 14.236875 -7.70125 13.47375 -8.0625 12.6875 C-9 10 -9 10 -8 7 C-6.35 7.33 -4.7 7.66 -3 8 C-2.01 5.36 -1.02 2.72 0 0 Z " fill="#78BF3B" transform="translate(127,73)"/>
<path d="M0 0 C2.20904631 0.08775663 4.41728593 0.19594367 6.625 0.3125 C7.85476562 0.37050781 9.08453125 0.42851563 10.3515625 0.48828125 C14.18019958 1.02527425 16.7091894 2.00200785 20 4 C21.375 6.1875 21.375 6.1875 22 8 C17.39612021 9.00053923 13.75549487 8.86574911 9.125 8.0625 C7.97257812 7.86785156 6.82015625 7.67320313 5.6328125 7.47265625 C4.32957031 7.23869141 4.32957031 7.23869141 3 7 C3 6.34 3 5.68 3 5 C2.01 4.67 1.02 4.34 0 4 C0 2.68 0 1.36 0 0 Z " fill="#1692BD" transform="translate(109,42)"/>
<path d="M0 0 C1.32 0 2.64 0 4 0 C4 2.31 4 4.62 4 7 C4.66 7 5.32 7 6 7 C6.66 7.66 7.32 8.32 8 9 C11.75425503 8.65238379 15.36950856 8.0165376 19 7 C19.33 8.65 19.66 10.3 20 12 C17.625 13.75 17.625 13.75 14 15 C8.92872644 13.80394492 3.81855277 11.60059885 0 8 C-0.52799676 5.23857697 -0.18598981 2.83634455 0 0 Z " fill="#7DC039" transform="translate(135,158)"/>
<path d="M0 0 C2.35039822 1.10804487 3.96979564 2.3341913 6 4 C5.67 4.66 5.34 5.32 5 6 C4.38125 5.525625 3.7625 5.05125 3.125 4.5625 C-1.16105676 2.41947162 -5.26600709 2.26657436 -10 2 C-10.33 2.66 -10.66 3.32 -11 4 C-11.5053125 4.4021875 -12.010625 4.804375 -12.53125 5.21875 C-14.72553548 7.87990473 -14.46940759 10.1042429 -14.5 13.5 C-14.5309375 14.6446875 -14.561875 15.789375 -14.59375 16.96875 C-14.31012228 20.1521917 -14.31012228 20.1521917 -11.73828125 21.80078125 C-9.39978109 22.82491755 -7.09219915 23.83159013 -4.6875 24.6875 C-2.8621875 25.3371875 -2.8621875 25.3371875 -1 26 C-1 26.33 -1 26.66 -1 27 C-5.67230248 27.32222776 -8.13884627 27.43057686 -12.375 25.3125 C-15.77827492 22.31437686 -16.75794904 20.37650029 -17.21484375 15.890625 C-17.42573743 10.86291976 -16.93724781 7.2539451 -14 3 C-9.8912374 -0.62537876 -5.23986986 -0.87331164 0 0 Z " fill="#81B04B" transform="translate(150,146)"/>
<path d="M0 0 C2.31 0 4.62 0 7 0 C7 8.91 7 17.82 7 27 C4.69 27 2.38 27 0 27 C0 26.67 0 26.34 0 26 C1.98 26 3.96 26 6 26 C5.85879286 24.06215735 5.71187127 22.12473045 5.5625 20.1875 C5.48128906 19.10855469 5.40007812 18.02960938 5.31640625 16.91796875 C5.09787539 13.94010095 5.09787539 13.94010095 4 11 C2.68 10.67 1.36 10.34 0 10 C0 6.7 0 3.4 0 0 Z " fill="#85B457" transform="translate(122,146)"/>
<path d="M0 0 C0 0.66 0 1.32 0 2 C-2.64 2.99 -5.28 3.98 -8 5 C-6.35 5.33 -4.7 5.66 -3 6 C-2.67 7.32 -2.34 8.64 -2 10 C-2.74765625 10.47050781 -3.4953125 10.94101562 -4.265625 11.42578125 C-5.25046875 12.04839844 -6.2353125 12.67101563 -7.25 13.3125 C-8.71179688 14.23482422 -8.71179688 14.23482422 -10.203125 15.17578125 C-12.54733713 16.70475759 -14.78784032 18.28820977 -17 20 C-17 19.01 -17 18.02 -17 17 C-16.34 17 -15.68 17 -15 17 C-15 16.34 -15 15.68 -15 15 C-12.5 13.375 -12.5 13.375 -10 12 C-10.33 11.01 -10.66 10.02 -11 9 C-15.455 10.485 -15.455 10.485 -20 12 C-15.30109403 6.67457324 -7.43769148 0 0 0 Z " fill="#1C87AB" transform="translate(96,43)"/>
<path d="M0 0 C0.66 0.33 1.32 0.66 2 1 C2.4140625 3.06640625 2.4140625 3.06640625 2.625 5.5625 C2.69976562 6.38878906 2.77453125 7.21507812 2.8515625 8.06640625 C2.90054688 8.70449219 2.94953125 9.34257812 3 10 C4.32 10 5.64 10 7 10 C7 6.7 7 3.4 7 0 C9.69734626 4.04601939 9.43218852 7.25423764 9 12 C8 15.0625 8 15.0625 7 17 C6.34 16.01 5.68 15.02 5 14 C1.04 14.66 -2.92 15.32 -7 16 C-7.33 15.01 -7.66 14.02 -8 13 C-8.66 13 -9.32 13 -10 13 C-10.02712066 11.56260487 -10.04645067 10.12506137 -10.0625 8.6875 C-10.07410156 7.88699219 -10.08570313 7.08648437 -10.09765625 6.26171875 C-10 4 -10 4 -9 1 C-8.34 1 -7.68 1 -7 1 C-7 5.29 -7 9.58 -7 14 C-4.69 14 -2.38 14 0 14 C0 9.38 0 4.76 0 0 Z " fill="#7EB045" transform="translate(149,152)"/>
<path d="M0 0 C0.33 0 0.66 0 1 0 C1.36681223 7.45851528 1.36681223 7.45851528 -0.3125 9.9375 C-4.27199067 12.43051264 -8.47289839 12.39168082 -13 12 C-15.5 11 -15.5 11 -17 10 C-17 7.69 -17 5.38 -17 3 C-13.37 3.66 -9.74 4.32 -6 5 C-6.33 5.66 -6.66 6.32 -7 7 C-7.66 7 -8.32 7 -9 7 C-9 7.99 -9 8.98 -9 10 C-5.535 9.505 -5.535 9.505 -2 9 C-1.34 6.03 -0.68 3.06 0 0 Z " fill="#7ABA3C" transform="translate(101,161)"/>
<path d="M0 0 C0.33 0.66 0.66 1.32 1 2 C0.67 2.66 0.34 3.32 0 4 C0.66 4.33 1.32 4.66 2 5 C1.01 5 0.02 5 -1 5 C-1.33 5.66 -1.66 6.32 -2 7 C-2.66 7.66 -3.32 8.32 -4 9 C-1.36 9 1.28 9 4 9 C2.35 11.97 0.7 14.94 -1 18 C-2.3921875 17.4740625 -2.3921875 17.4740625 -3.8125 16.9375 C-6.9802953 15.67617372 -6.9802953 15.67617372 -10 17 C-8.51647746 10.73623815 -4.55944809 4.55944809 0 0 Z " fill="#1E8EB7" transform="translate(75,55)"/>
<path d="M0 0 C0.33 0.66 0.66 1.32 1 2 C3.57951874 2.69093896 3.57951874 2.69093896 6.5625 3.125 C7.57441406 3.29257813 8.58632812 3.46015625 9.62890625 3.6328125 C10.80259766 3.81457031 10.80259766 3.81457031 12 4 C12 4.33 12 4.66 12 5 C9.36 5 6.72 5 4 5 C4 7.64 4 10.28 4 13 C1.69 13 -0.62 13 -3 13 C-3.27429625 7.60550707 -3.36055646 4.48074195 0 0 Z " fill="#88C152" transform="translate(166,160)"/>
<path d="M0 0 C2.66666667 0.66666667 5.33333333 1.33333333 8 2 C8 2.66 8 3.32 8 4 C10.31 4.66 12.62 5.32 15 6 C15 7.65 15 9.3 15 11 C10.92216562 11.32622675 8.42012213 11.19817082 4.6875 9.4375 C1.4348458 6.48741829 0.81794223 4.25329959 0 0 Z " fill="#1B93BD" transform="translate(82,122)"/>
<path d="M0 0 C0.33 0 0.66 0 1 0 C0.88581333 2.58422459 0.75907638 5.16679513 0.625 7.75 C0.57859375 8.84441406 0.57859375 8.84441406 0.53125 9.9609375 C0.3251506 13.73942656 0.08487157 16.77946668 -2 20 C-2 19.01 -2 18.02 -2 17 C-3.98 17.99 -3.98 17.99 -6 19 C-6.33 18.67 -6.66 18.34 -7 18 C-7.33 20.31 -7.66 22.62 -8 25 C-8.66 25 -9.32 25 -10 25 C-10.2164183 19.26491517 -9.65549359 17.01763282 -6 12.5625 C-4.31446139 10.40290365 -3.10519178 8.4866815 -2 6 C-1.34 6 -0.68 6 0 6 C0 4.02 0 2.04 0 0 Z " fill="#79BD4D" transform="translate(143,71)"/>
<path d="M0 0 C12.21 0 24.42 0 37 0 C37 0.33 37 0.66 37 1 C33.04217694 1.19947428 29.08374621 1.38235481 25.125 1.5625 C24.01640625 1.61857422 22.9078125 1.67464844 21.765625 1.73242188 C15.06794989 2.02790754 8.64675992 1.90159021 2 1 C2.350625 1.763125 2.70125 2.52625 3.0625 3.3125 C4 6 4 6 3 9 C2.931009 11.06145107 2.91532273 13.12501401 2.9375 15.1875 C2.94652344 16.27417969 2.95554687 17.36085938 2.96484375 18.48046875 C2.97644531 19.31191406 2.98804687 20.14335938 3 21 C2.67 21 2.34 21 2 21 C1.34 14.07 0.68 7.14 0 0 Z " fill="#A2C746" transform="translate(76,73)"/>
<path d="M0 0 C2.625 0.9375 2.625 0.9375 5 2 C5 3.98 5 5.96 5 8 C3.35 8.66 1.7 9.32 0 10 C-1.32 8.68 -2.64 7.36 -4 6 C-2.25 1.125 -2.25 1.125 0 0 Z " fill="#60AD4A" transform="translate(120,114)"/>
<path d="M0 0 C2.475 0.99 2.475 0.99 5 2 C5 5.3 5 8.6 5 12 C4.01 12.33 3.02 12.66 2 13 C1.29618843 14.98723268 0.6288189 16.98777953 0 19 C-0.66 19.33 -1.32 19.66 -2 20 C-1.855625 19.39414063 -1.71125 18.78828125 -1.5625 18.1640625 C-0.19990364 12.01345393 0.24088843 6.28986455 0 0 Z " fill="#1591BB" transform="translate(151,84)"/>
<path d="M0 0 C4.29 0 8.58 0 13 0 C13 1.65 13 3.3 13 5 C8.71 5 4.42 5 0 5 C0 3.35 0 1.7 0 0 Z " fill="#248DAD" transform="translate(66,158)"/>
<path d="M0 0 C2.6875 1.4375 2.6875 1.4375 5 3 C4.8125 5.375 4.8125 5.375 4 8 C1.4375 9.3125 1.4375 9.3125 -1 10 C-2.5625 8.875 -2.5625 8.875 -4 7 C-3.6875 3.8125 -3.6875 3.8125 -3 1 C-2.01 0.67 -1.02 0.34 0 0 Z " fill="#74B643" transform="translate(99,114)"/>
<path d="M0 0 C2.97 0 5.94 0 9 0 C9 0.99 9 1.98 9 3 C7.35 3 5.7 3 4 3 C4.15597656 4.05058594 4.31195313 5.10117188 4.47265625 6.18359375 C6.51974949 20.65454412 6.51974949 20.65454412 5 28 C4.34 28.66 3.68 29.32 3 30 C3.03480469 28.75605469 3.06960937 27.51210937 3.10546875 26.23046875 C3.28260153 17.04631858 3.295658 8.7295703 0 0 Z " fill="#2387A7" transform="translate(146,71)"/>
<path d="M0 0 C1.98 0 3.96 0 6 0 C7.125 2.3125 7.125 2.3125 8 5 C7.01 6.485 7.01 6.485 6 8 C3.390379 8.38411275 0.9941926 8.60293197 -1.625 8.6875 C-2.68460938 8.73874023 -2.68460938 8.73874023 -3.765625 8.79101562 C-5.50985688 8.87351308 -7.25490395 8.93843335 -9 9 C-9 8.34 -9 7.68 -9 7 C-3.555 6.505 -3.555 6.505 2 6 C1.34 5.34 0.68 4.68 0 4 C0 2.68 0 1.36 0 0 Z " fill="#74B44D" transform="translate(153,61)"/>
<path d="M0 0 C0 1.32 0 2.64 0 4 C-3.63 4 -7.26 4 -11 4 C-11 2.68 -11 1.36 -11 0 C-7.18243176 -1.37432457 -3.92744671 -0.67975039 0 0 Z " fill="#2898BE" transform="translate(61,168)"/>
<path d="M0 0 C2.3125 0.0625 2.3125 0.0625 5 1 C7.59985139 5.1933087 8.163276 6.89335153 7.4375 11.8125 C6 15 6 15 3.875 16.4375 C3.25625 16.623125 2.6375 16.80875 2 17 C2 16.34 2 15.68 2 15 C2.99 14.34 3.98 13.68 5 13 C5.33 12.01 5.66 11.02 6 10 C5.01 9.67 4.02 9.34 3 9 C3.33 7.02 3.66 5.04 4 3 C2.68 2.67 1.36 2.34 0 2 C0 1.34 0 0.68 0 0 Z " fill="#86B552" transform="translate(176,147)"/>
<path d="M0 0 C0.33 0 0.66 0 1 0 C1.12036664 5.77759884 0.8320582 11.27959989 0 17 C-0.33 16.01 -0.66 15.02 -1 14 C-1.99 14 -2.98 14 -4 14 C-4.6875 12.1875 -4.6875 12.1875 -5 10 C-4 9 -3 8 -2 7 C-1.25613932 4.69011685 -0.57809297 2.35684056 0 0 Z " fill="#7CB842" transform="translate(127,73)"/>
<path d="M0 0 C0.33 1.65 0.66 3.3 1 5 C-0.65 4.67 -2.3 4.34 -4 4 C-4.50125283 7.33142278 -4.50125283 7.33142278 -4 11 C-1.13384514 13.49540371 -1.13384514 13.49540371 2 15 C1.01 15.495 1.01 15.495 0 16 C-3.36949443 14.31525278 -4.87944386 13.1808342 -7 10 C-6.81334503 6.51577388 -6.67204701 3.94697533 -4.625 1.0625 C-3 0 -3 0 0 0 Z " fill="#7CAE4A" transform="translate(90,147)"/>
<path d="M0 0 C-1.2579385 2.51587701 -2.98751008 4.04849462 -5 6 C-5.66 6.66 -6.32 7.32 -7 8 C-8.32 8 -9.64 8 -11 8 C-10.60935585 5.53471865 -10.26760629 4.26692012 -8.4765625 2.48046875 C-7.86554688 2.05378906 -7.25453125 1.62710938 -6.625 1.1875 C-6.01914063 0.74792969 -5.41328125 0.30835937 -4.7890625 -0.14453125 C-3 -1 -3 -1 0 0 Z " fill="#1A92C0" transform="translate(142,120)"/>
<path d="M0 0 C0.66 0 1.32 0 2 0 C2.33 1.65 2.66 3.3 3 5 C4.32 3.35 5.64 1.7 7 0 C7 2.64 7 5.28 7 8 C4.69 8 2.38 8 0 8 C0 5.36 0 2.72 0 0 Z " fill="#8FBD61" transform="translate(163,165)"/>
<path d="M0 0 C2.69734626 4.04601939 2.43218852 7.25423764 2 12 C1 15.0625 1 15.0625 0 17 C-0.66 16.01 -1.32 15.02 -2 14 C-2.99 13.67 -3.98 13.34 -5 13 C-4.67 12.01 -4.34 11.02 -4 10 C-2.68 10 -1.36 10 0 10 C0 6.7 0 3.4 0 0 Z " fill="#82B74B" transform="translate(156,152)"/>
<path d="M0 0 C0.33 0 0.66 0 1 0 C1.36681223 7.45851528 1.36681223 7.45851528 -0.3125 9.9375 C-4.45535547 12.54596455 -8.28233937 12.22465051 -13 12 C-13.66 11.34 -14.32 10.68 -15 10 C-8.565 9.505 -8.565 9.505 -2 9 C-1.34 6.03 -0.68 3.06 0 0 Z " fill="#81B050" transform="translate(101,161)"/>
<path d="M0 0 C2.875 -0.125 2.875 -0.125 6 0 C8 2 8 2 8 6 C5.69 5.67 3.38 5.34 1 5 C0.67 3.35 0.34 1.7 0 0 Z " fill="#80BC3E" transform="translate(91,146)"/>
<path d="M0 0 C0.763125 0.350625 1.52625 0.70125 2.3125 1.0625 C5.04759379 2.32360884 5.04759379 2.32360884 8 1 C8.061875 1.94875 8.12375 2.8975 8.1875 3.875 C8.455625 4.90625 8.72375 5.9375 9 7 C11.44288628 8.31068333 11.44288628 8.31068333 14 9 C14.33 9.66 14.66 10.32 15 11 C8.61438203 9.69012965 4.45486113 5.50435959 0 1 C0 0.67 0 0.34 0 0 Z " fill="#1E85AC" transform="translate(75,122)"/>
<path d="M0 0 C0.33 0.66 0.66 1.32 1 2 C0.67 2.66 0.34 3.32 0 4 C0.66 4.33 1.32 4.66 2 5 C1.01 5 0.02 5 -1 5 C-1.33 5.66 -1.66 6.32 -2 7 C-2.639375 7.763125 -3.27875 8.52625 -3.9375 9.3125 C-5.8863764 11.851945 -6.96937568 13.9940124 -8 17 C-8.66 17 -9.32 17 -10 17 C-8.51647746 10.73623815 -4.55944809 4.55944809 0 0 Z " fill="#1C86A7" transform="translate(75,55)"/>
<path d="M0 0 C1.1725131 0.95117134 2.33787015 1.91117009 3.5 2.875 C4.1496875 3.40867188 4.799375 3.94234375 5.46875 4.4921875 C6.22671875 5.23855469 6.22671875 5.23855469 7 6 C7 6.66 7 7.32 7 8 C3.37 8 -0.26 8 -4 8 C-4.33 7.34 -4.66 6.68 -5 6 C-2.36 5.67 0.28 5.34 3 5 C2.2575 4.319375 2.2575 4.319375 1.5 3.625 C0 2 0 2 0 0 Z " fill="#2A859A" transform="translate(140,51)"/>
<path d="M0 0 C0.66 0 1.32 0 2 0 C4.125 5.625 4.125 5.625 3 9 C2.931009 11.06145107 2.91532273 13.12501401 2.9375 15.1875 C2.94652344 16.27417969 2.95554687 17.36085938 2.96484375 18.48046875 C2.97644531 19.31191406 2.98804687 20.14335938 3 21 C2.67 21 2.34 21 2 21 C1.34 14.07 0.68 7.14 0 0 Z " fill="#97B84A" transform="translate(76,73)"/>
<path d="M0 0 C0.33 0 0.66 0 1 0 C1 2.97 1 5.94 1 9 C-1.31 9 -3.62 9 -6 9 C-6 6.69 -6 4.38 -6 2 C-5.01 2.33 -4.02 2.66 -3 3 C-3.33 4.32 -3.66 5.64 -4 7 C-2.68 7 -1.36 7 0 7 C0 4.69 0 2.38 0 0 Z " fill="#82B355" transform="translate(113,164)"/>
<path d="M0 0 C0.66 0.33 1.32 0.66 2 1 C1.67 3.97 1.34 6.94 1 10 C-0.32 10 -1.64 10 -3 10 C-3 7.69 -3 5.38 -3 3 C-2.34 3 -1.68 3 -1 3 C-0.67 2.01 -0.34 1.02 0 0 Z " fill="#7BC33A" transform="translate(126,161)"/>
<path d="M0 0 C0.66 0 1.32 0 2 0 C1.67 1.32 1.34 2.64 1 4 C3.475 4.99 3.475 4.99 6 6 C2.57056481 7.18771723 0.62215325 6.80226223 -2.75 5.5625 C-3.54921875 5.27503906 -4.3484375 4.98757812 -5.171875 4.69140625 C-5.77515625 4.46324219 -6.3784375 4.23507813 -7 4 C-7 3.67 -7 3.34 -7 3 C-4.69 3 -2.38 3 0 3 C0 2.01 0 1.02 0 0 Z " fill="#2488AD" transform="translate(97,130)"/>
<path d="M0 0 C0.33 0.66 0.66 1.32 1 2 C0.484375 2.5775 -0.03125 3.155 -0.5625 3.75 C-2.26505193 5.87827523 -2.26505193 5.87827523 -1.6875 8.25 C-1.460625 8.8275 -1.23375 9.405 -1 10 C-4.05847848 10.54372951 -6.88772805 11 -10 11 C-9.44570312 10.45730469 -8.89140625 9.91460937 -8.3203125 9.35546875 C-7.23363281 8.28232422 -7.23363281 8.28232422 -6.125 7.1875 C-5.40570313 6.47980469 -4.68640625 5.77210937 -3.9453125 5.04296875 C-1.84641063 2.95600806 -1.84641063 2.95600806 0 0 Z " fill="#2388A5" transform="translate(144,110)"/>
<path d="M0 0 C1.2065625 0.0309375 1.2065625 0.0309375 2.4375 0.0625 C2.1075 2.3725 1.7775 4.6825 1.4375 7.0625 C0.4475 7.0625 -0.5425 7.0625 -1.5625 7.0625 C-2.2225 5.0825 -2.8825 3.1025 -3.5625 1.0625 C-2.5625 0.0625 -2.5625 0.0625 0 0 Z " fill="#2098BE" transform="translate(152.5625,72.9375)"/>
<path d="M0 0 C2 3 2 3 2 5 C2.99 5.33 3.98 5.66 5 6 C5 6.33 5 6.66 5 7 C2.69 7 0.38 7 -2 7 C-2.33 5.35 -2.66 3.7 -3 2 C-2.01 1.34 -1.02 0.68 0 0 Z " fill="#1696C1" transform="translate(139,50)"/>
<path d="M0 0 C1.98 0 3.96 0 6 0 C6 1.65 6 3.3 6 5 C5.67 4.34 5.34 3.68 5 3 C3.35 4.32 1.7 5.64 0 7 C0 4.69 0 2.38 0 0 Z " fill="#7DB443" transform="translate(122,146)"/>
<path d="M0 0 C0.78375 0.185625 1.5675 0.37125 2.375 0.5625 C4.97089775 1.25962266 4.97089775 1.25962266 7 0 C6.34 1.98 5.68 3.96 5 6 C4.01 6 3.02 6 2 6 C1.34 5.34 0.68 4.68 0 4 C0 2.68 0 1.36 0 0 Z " fill="#3E8B9F" transform="translate(49,177)"/>
<path d="M0 0 C0 1.65 0 3.3 0 5 C-2.31 5 -4.62 5 -7 5 C-6.1875 3.0625 -6.1875 3.0625 -5 1 C-2 0 -2 0 0 0 Z " fill="#2E9DC9" transform="translate(97,128)"/>
<path d="M0 0 C0.66 0.33 1.32 0.66 2 1 C1.67 2.32 1.34 3.64 1 5 C1.66 5 2.32 5 3 5 C3 5.66 3 6.32 3 7 C3.99 7.33 4.98 7.66 6 8 C4.1875 8.6875 4.1875 8.6875 2 9 C0.1875 7.9375 0.1875 7.9375 -1 6 C-0.6875 2.8125 -0.6875 2.8125 0 0 Z " fill="#74AC50" transform="translate(96,115)"/>
<path d="M0 0 C0.33 0 0.66 0 1 0 C0.67 5.28 0.34 10.56 0 16 C-0.33 16 -0.66 16 -1 16 C-1.144375 15.05125 -1.28875 14.1025 -1.4375 13.125 C-1.82935399 10.1065506 -1.82935399 10.1065506 -3 8 C-2.67 7.34 -2.34 6.68 -2 6 C-1.34 6 -0.68 6 0 6 C0 4.02 0 2.04 0 0 Z " fill="#81B65D" transform="translate(143,71)"/>
<path d="M0 0 C2.475 0.495 2.475 0.495 5 1 C5 2.65 5 4.3 5 6 C3.33333333 6 1.66666667 6 0 6 C0 4.02 0 2.04 0 0 Z " fill="#5D9495" transform="translate(138,177)"/>
<path d="M0 0 C0.99 0.33 1.98 0.66 3 1 C3.33 2.65 3.66 4.3 4 6 C2.35 6 0.7 6 -1 6 C-1.042721 4.33388095 -1.04063832 2.66617115 -1 1 C-0.67 0.67 -0.34 0.34 0 0 Z " fill="#59938F" transform="translate(102,177)"/>
<path d="M0 0 C1.65 0 3.3 0 5 0 C5 1.65 5 3.3 5 5 C3.35 5 1.7 5 0 5 C0 3.35 0 1.7 0 0 Z " fill="#5E9994" transform="translate(154,178)"/>
<path d="M0 0 C0.99 0.33 1.98 0.66 3 1 C3 2.65 3 4.3 3 6 C1.68 6 0.36 6 -1 6 C-1.042721 4.33388095 -1.04063832 2.66617115 -1 1 C-0.67 0.67 -0.34 0.34 0 0 Z " fill="#529999" transform="translate(124,177)"/>
<path d="M0 0 C-1.24663331 0.50833591 -2.49749387 1.00631145 -3.75 1.5 C-4.44609375 1.7784375 -5.1421875 2.056875 -5.859375 2.34375 C-8 3 -8 3 -12 3 C-12 2.34 -12 1.68 -12 1 C-3.96428571 -1.27678571 -3.96428571 -1.27678571 0 0 Z " fill="#2084A6" transform="translate(130,134)"/>
<path d="M0 0 C0 1.65 0 3.3 0 5 C-1.65 5.66 -3.3 6.32 -5 7 C-5 5.68 -5 4.36 -5 3 C-4.34 3 -3.68 3 -3 3 C-3 2.34 -3 1.68 -3 1 C-1 0 -1 0 0 0 Z " fill="#138EB7" transform="translate(70,94)"/>
<path d="M0 0 C2.97 0 5.94 0 9 0 C9 0.99 9 1.98 9 3 C6.69 2.67 4.38 2.34 2 2 C1.67 2.66 1.34 3.32 1 4 C0.67 2.68 0.34 1.36 0 0 Z " fill="#438B9C" transform="translate(146,71)"/>
<path d="M0 0 C0.99 0.33 1.98 0.66 3 1 C3.33 2.65 3.66 4.3 4 6 C2.35 6 0.7 6 -1 6 C-1.042721 4.33388095 -1.04063832 2.66617115 -1 1 C-0.67 0.67 -0.34 0.34 0 0 Z " fill="#548EA5" transform="translate(58,177)"/>
<path d="M0 0 C0.99 0.33 1.98 0.66 3 1 C3 2.65 3 4.3 3 6 C1.68 6 0.36 6 -1 6 C-1.042721 4.33388095 -1.04063832 2.66617115 -1 1 C-0.67 0.67 -0.34 0.34 0 0 Z " fill="#5C9DA6" transform="translate(167,177)"/>
<path d="M0 0 C1.32 0.66 2.64 1.32 4 2 C3.67 3.32 3.34 4.64 3 6 C1.68 5.67 0.36 5.34 -1 5 C-0.67 3.35 -0.34 1.7 0 0 Z M1 2 C2 5 2 5 2 5 Z " fill="#5F9899" transform="translate(89,177)"/>
<path d="M0 0 C0.33 0.66 0.66 1.32 1 2 C-1.31 2.33 -3.62 2.66 -6 3 C-6.33 4.32 -6.66 5.64 -7 7 C-7.66 7 -8.32 7 -9 7 C-9 5.02 -9 3.04 -9 1 C-4.545 0.505 -4.545 0.505 0 0 Z " fill="#1683AC" transform="translate(58,160)"/>
<path d="M0 0 C0.66 0.33 1.32 0.66 2 1 C0.02 3.97 0.02 3.97 -2 7 C-4.475 6.01 -4.475 6.01 -7 5 C-4.702779 3.25728062 -2.40133271 1.60088848 0 0 Z " fill="#2287A7" transform="translate(132,122)"/>
<path d="M0 0 C0.99 0 1.98 0 3 0 C3 1.98 3 3.96 3 6 C1.68 6 0.36 6 -1 6 C-1.042721 4.33388095 -1.04063832 2.66617115 -1 1 C-0.67 0.67 -0.34 0.34 0 0 Z " fill="#6197A1" transform="translate(173,177)"/>
<path d="M0 0 C2.0625 0.4375 2.0625 0.4375 4 1 C3.01 2.98 2.02 4.96 1 7 C0.34 6.67 -0.32 6.34 -1 6 C-1.042721 4.33388095 -1.04063832 2.66617115 -1 1 C-0.67 0.67 -0.34 0.34 0 0 Z " fill="#7DC142" transform="translate(166,164)"/>
<path d="M0 0 C0.66 0 1.32 0 2 0 C2.33 0.99 2.66 1.98 3 3 C2.01 3.99 1.02 4.98 0 6 C-0.66 5.67 -1.32 5.34 -2 5 C-1.125 1.125 -1.125 1.125 0 0 Z " fill="#7AC539" transform="translate(125,149)"/>
<path d="M0 0 C0.99 0 1.98 0 3 0 C3 1.98 3 3.96 3 6 C2.01 6 1.02 6 0 6 C0 4.02 0 2.04 0 0 Z " fill="#629FA6" transform="translate(161,177)"/>
<path d="M0 0 C0.99 0 1.98 0 3 0 C3 1.98 3 3.96 3 6 C2.01 6 1.02 6 0 6 C0 4.02 0 2.04 0 0 Z " fill="#619F9E" transform="translate(145,177)"/>
<path d="M0 0 C0.66 0.33 1.32 0.66 2 1 C2.625 3.5625 2.625 3.5625 3 6 C1.35 6 -0.3 6 -2 6 C-1.34 4.02 -0.68 2.04 0 0 Z " fill="#5F9392" transform="translate(118,177)"/>
<path d="M0 0 C1.32 0 2.64 0 4 0 C3.67 1.98 3.34 3.96 3 6 C2.34 6 1.68 6 1 6 C0.67 4.02 0.34 2.04 0 0 Z " fill="#609584" transform="translate(111,177)"/>
<path d="M0 0 C0.99 0 1.98 0 3 0 C3 1.98 3 3.96 3 6 C2.01 6 1.02 6 0 6 C0 4.02 0 2.04 0 0 Z " fill="#3D94A8" transform="translate(73,177)"/>
<path d="M0 0 C1.32 0 2.64 0 4 0 C3.67 1.98 3.34 3.96 3 6 C2.34 6 1.68 6 1 6 C0.67 4.02 0.34 2.04 0 0 Z " fill="#509794" transform="translate(82,177)"/>
<path d="M0 0 C0.33 0 0.66 0 1 0 C1 1.65 1 3.3 1 5 C1.66 5 2.32 5 3 5 C3 3.35 3 1.7 3 0 C3.33 0 3.66 0 4 0 C4 1.98 4 3.96 4 6 C2.68 6 1.36 6 0 6 C0 4.02 0 2.04 0 0 Z " fill="#639192" transform="translate(95,177)"/>
<path d="M0 0 C0.99 0.495 0.99 0.495 2 1 C2 2.32 2 3.64 2 5 C2.66 5.33 3.32 5.66 4 6 C2.68 6 1.36 6 0 6 C0 4.02 0 2.04 0 0 Z " fill="#688E8D" transform="translate(129,177)"/>
<path d="M0 0 C1.32 0 2.64 0 4 0 C4 0.66 4 1.32 4 2 C3.34 2 2.68 2 2 2 C1.67 3.32 1.34 4.64 1 6 C1 4.68 1 3.36 1 2 C0.34 1.67 -0.32 1.34 -1 1 C-0.67 0.67 -0.34 0.34 0 0 Z " fill="#568E97" transform="translate(67,177)"/>
<path d="M0 0 C0.66 0 1.32 0 2 0 C2 1.65 2 3.3 2 5 C1.34 5 0.68 5 0 5 C0 3.35 0 1.7 0 0 Z " fill="#67849B" transform="translate(63,178)"/>
<path d="M0 0 C0.33 0 0.66 0 1 0 C1 1.98 1 3.96 1 6 C0.67 6 0.34 6 0 6 C0 4.02 0 2.04 0 0 Z " fill="#6B8D8E" transform="translate(135,177)"/>
</svg>
