<?xml version="1.0" standalone="no"?>
<!DOCTYPE svg PUBLIC "-//W3C//DTD SVG 20010904//EN"
 "http://www.w3.org/TR/2001/REC-SVG-20010904/DTD/svg10.dtd">
<svg version="1.0" xmlns="http://www.w3.org/2000/svg"
 width="512.000000pt" height="512.000000pt" viewBox="0 0 512.000000 512.000000"
 preserveAspectRatio="xMidYMid meet">

<g transform="translate(0.000000,512.000000) scale(0.100000,-0.100000)"
fill="#000000" stroke="none">
<path d="M1367 3240 c-60 -10 -111 -21 -115 -24 -3 -4 15 -28 41 -54 l48 -48
-165 -157 c-90 -86 -169 -157 -176 -157 -7 0 -42 29 -79 65 -37 36 -76 65 -87
65 -12 0 -84 -65 -183 -164 l-164 -165 17 -25 c9 -14 24 -26 34 -26 9 1 80 61
157 135 l140 134 76 -75 c42 -41 85 -74 94 -74 10 0 68 48 129 107 61 59 148
144 193 187 l83 80 38 -37 c21 -20 45 -37 54 -37 21 0 29 55 27 188 l-1 102
-27 -1 c-14 0 -75 -9 -134 -19z"/>
<path d="M1310 2830 c0 -36 -2 -40 -25 -40 l-25 0 2 -347 3 -348 60 -3 c32 -2
69 -1 82 3 l23 5 0 344 0 345 -22 3 c-19 2 -24 10 -26 41 -3 35 -5 37 -38 37
-33 0 -34 -1 -34 -40z"/>
<path d="M4485 2785 c-5 -2 -22 -6 -37 -9 -37 -8 -85 -51 -108 -97 -27 -51
-27 -158 -1 -215 62 -137 262 -140 330 -5 56 112 19 256 -78 305 -28 14 -90
26 -106 21z m69 -86 c57 -26 76 -156 33 -220 -65 -97 -187 -37 -187 91 0 106
72 166 154 129z"/>
<path d="M1670 2575 l0 -205 35 0 35 0 0 148 c1 131 2 144 14 116 7 -16 44
-83 81 -147 l67 -117 39 0 39 0 0 205 0 205 -35 0 -35 0 0 -147 0 -148 -58
105 c-114 205 -103 190 -144 190 l-38 0 0 -205z"/>
<path d="M2050 2575 l0 -205 40 0 40 0 0 205 0 205 -40 0 -40 0 0 -205z"/>
<path d="M2225 2623 c29 -87 61 -179 70 -205 l17 -48 47 0 46 0 65 193 c36
105 66 198 68 205 2 8 -10 12 -40 12 l-44 0 -33 -112 c-47 -161 -69 -226 -70
-202 -1 11 -7 40 -15 65 -8 24 -29 90 -46 147 l-31 102 -44 0 -44 0 54 -157z"/>
<path d="M2580 2575 l0 -205 130 0 130 0 0 35 0 35 -90 0 -90 0 0 50 0 50 85
0 85 0 0 35 0 35 -85 0 -85 0 0 50 c0 41 3 50 18 48 9 -1 50 0 90 0 l72 2 0
35 0 35 -130 0 -130 0 0 -205z"/>
<path d="M2975 2770 c-37 -15 -67 -57 -72 -102 -8 -72 26 -100 164 -137 49
-13 63 -40 39 -76 -29 -45 -126 -26 -126 24 0 10 -10 11 -37 6 -21 -4 -40 -9
-43 -11 -11 -12 38 -81 70 -97 54 -28 141 -19 179 17 39 38 55 78 47 120 -8
44 -43 72 -115 92 -90 24 -101 31 -101 59 0 32 40 60 76 51 14 -4 33 -20 42
-36 10 -17 23 -28 30 -25 8 3 24 5 37 5 19 0 22 4 17 23 -9 35 -33 67 -63 83
-30 15 -111 18 -144 4z"/>
<path d="M3250 2575 l0 -205 40 0 40 0 0 85 0 85 80 0 80 0 0 -85 0 -85 40 0
40 0 0 205 0 205 -40 0 -40 0 0 -85 0 -86 -77 3 -78 3 -3 83 -3 82 -39 0 -40
0 0 -205z"/>
<path d="M3640 2774 c-1 -5 -1 -97 -1 -204 l0 -195 40 -3 41 -3 0 70 0 71 59
0 c65 0 116 26 138 70 30 59 4 153 -49 181 -27 15 -228 26 -228 13z m194 -96
c36 -51 3 -98 -69 -98 l-45 0 0 60 0 60 49 0 c40 0 53 -4 65 -22z"/>
<path d="M3980 2576 l0 -206 40 0 40 0 0 69 0 69 35 4 c34 4 35 3 67 -69 l32
-73 43 0 c24 0 43 3 43 7 0 4 -16 39 -36 78 l-37 71 31 30 c56 57 51 151 -11
198 -24 17 -46 21 -138 24 l-109 4 0 -206z m203 102 c22 -26 22 -40 -1 -68
-13 -16 -32 -24 -70 -28 l-52 -5 0 68 0 67 53 -7 c34 -4 58 -14 70 -27z"/>
<path d="M1050 2580 c0 -25 -4 -30 -25 -30 l-25 0 0 -225 0 -225 85 0 85 0 -2
222 -3 222 -25 6 c-18 4 -26 14 -28 33 -3 22 -8 27 -33 27 -26 0 -29 -3 -29
-30z"/>
<path d="M798 2558 c-2 -25 -9 -34 -28 -38 l-25 -6 0 -204 0 -205 83 -3 82 -3
0 211 0 210 -25 0 c-22 0 -25 4 -25 35 0 32 -2 35 -29 35 -26 0 -30 -4 -33
-32z"/>
<path d="M540 2420 c0 -15 -7 -20 -25 -20 l-25 0 0 -150 0 -150 25 0 c21 0 25
-5 25 -30 0 -27 3 -30 30 -30 27 0 30 3 30 30 0 27 3 30 30 30 l31 0 -3 148
-3 147 -27 3 c-20 2 -28 9 -28 23 0 14 -7 19 -30 19 -23 0 -30 -4 -30 -20z"/>
</g>
</svg>
